{"title":"Death Hunt 1981 DVDrip English Klam","uid":6056667,"size":1265831857,"categoryP":"video","categoryS":"movies","magnet":"?xt=urn:btih:62f65d4a8da4778bacc02518844bad3eab9cc841&amp;dn=Death+Hunt+1981+DVDrip+English+Klam&amp;tr=udp%3A%2F%2Ftracker.openbittorrent.com%3A80&amp;tr=udp%3A%2F%2Fopen.demonii.com%3A1337&amp;tr=udp%3A%2F%2Ftracker.coppersurfer.tk%3A6969&amp;tr=udp%3A%2F%2Fexodus.desync.com%3A6969","seeders":0,"leechers":0,"uploader":"Klambake","files":3,"time":1292937027,"description":"With: Charles Bronson, Lee Marvin and Angie Dickinson\n\nCanada 1931: The unsociable trapper Johnson lives for himself in the ice-cold mountains near the Yukon river. During a visit in the town he witnesses a dog-fight. He interrupts the game and buys one of the dogs - almost dead already - for $200 against the owner's will. When the owner Hasel complains to Mountie Sergeant Millen, he refuses to take action. But then the loathing breeder and his friends accuse Johnson of murder. So Millen, although sympathetic, has to try to take him under arrest - but Johnson defends his freedom in every way possible.\n\nGeneral:\n\nComplete name                    : Death\\Hunt.avi\nFormat                           : AVI\nFormat/Info                      : Audio Video Interleave\nFile size                        : 1.18 GiB\nDuration                         : 1h 37mn\nOverall bit rate                 : 1 739 Kbps\n\nVideo:\n\nFormat                           : MPEG-4 Visual\nFormat profile                   : Simple@L3\nFormat settings, BVOP            : No\nFormat settings, QPel            : No\nFormat settings, GMC             : No warppoints\nFormat settings, Matrix          : Default (H.263)\nCodec ID                         : XVID\nCodec ID/Hint                    : XviD\nDuration                         : 1h 37mn\nBit rate                         : 1 535 Kbps\nWidth                            : 720 pixels\nHeight                           : 576 pixels\nDisplay aspect ratio             : 5:4\nFrame rate                       : 29.970 fps\nStandard                         : PAL\nColor space                      : YUV\nChroma subsampling               : 4:2:0\nBit depth                        : 8 bits\nScan type                        : Progressive\nBits/(Pixel*Frame)               : 0.124\nStream size                      : 1.04 GiB (88%)\nWriting library                  : XviD 1.1.2 (UTC 2006-11-01)\n\nAudio:\n\nFormat                           : AC-3\nFormat/Info                      : Audio Coding 3\nMode extension                   : CM (complete main)\nCodec ID                         : 2000\nDuration                         : 1h 37mn\nBit rate mode                    : Constant\nBit rate                         : 192 Kbps\nChannel(s)                       : 2 channels\nChannel positions                : Front: L R\nSampling rate                    : 48.0 KHz\nBit depth                        : 16 bits\nStream size                      : 133 MiB (11%)\nAlignment                        : Aligned on interleaves\nInterleave, duration             : 32 ms (0.96 video frame)","torrent":{"xt":"urn:btih:62f65d4a8da4778bacc02518844bad3eab9cc841","amp;dn":"Death+Hunt+1981+DVDrip+English+Klam","amp;tr":["udp%3A%2F%2Ftracker.openbittorrent.com%3A80","udp%3A%2F%2Fopen.demonii.com%3A1337","udp%3A%2F%2Ftracker.coppersurfer.tk%3A6969","udp%3A%2F%2Fexodus.desync.com%3A6969"],"infoHash":"62f65d4a8da4778bacc02518844bad3eab9cc841","infoHashBuffer":{"type":"Buffer","data":[98,246,93,74,141,164,119,139,172,192,37,24,132,75,173,62,171,156,200,65]},"announce":[],"urlList":[]}}